<svg width="29" height="20" viewBox="0 0 29 20" fill="none" xmlns="http://www.w3.org/2000/svg">
<path fill-rule="evenodd" clip-rule="evenodd" d="M27.6321 4.13896C27.6923 4.13715 27.7535 4.14172 27.8146 4.15318C27.9366 4.17985 28.0474 4.23095 28.1426 4.30048C28.3553 4.45402 28.4956 4.70261 28.4998 4.98261C28.5012 5.04291 28.4966 5.10442 28.4853 5.16642L26.4589 15.2988C26.3732 15.6984 26.0307 15.9838 25.6169 15.9838H24.8779C24.9865 16.2726 25.046 16.5852 25.046 16.9114C25.046 18.367 23.8615 19.5515 22.4059 19.5515C20.9503 19.5515 19.7658 18.367 19.7658 16.9114C19.7658 16.5852 19.8253 16.2726 19.934 15.9838H14.1747C14.2833 16.2726 14.3428 16.5852 14.3428 16.9114C14.3428 18.367 13.1583 19.5515 11.7027 19.5515C10.2471 19.5515 9.06259 18.367 9.06259 16.9114C9.06259 16.5852 9.1221 16.2726 9.23082 15.9838H8.49174C8.07788 15.9838 7.73537 15.6984 7.64975 15.2988L4.93255 1.71287H1.35626C0.885317 1.71287 0.5 1.32755 0.5 0.856609C0.5 0.385667 0.885317 0.000350285 1.35626 0.000350285H5.60235C5.62263 -0.000220554 5.64281 -9.16111e-05 5.66283 0.000721835C5.93552 0.00872785 6.17728 0.145843 6.32874 0.352715C6.40005 0.448973 6.45241 0.561371 6.47953 0.685329L7.1688 4.13896H27.6321ZM26.5966 5.85148H7.51059L9.19101 14.2713H24.9176L26.5966 5.85148ZM11.7027 17.839C11.189 17.839 10.7751 17.4251 10.7751 16.9114C10.7751 16.3976 11.189 15.9838 11.7027 15.9838C12.2164 15.9838 12.6303 16.3976 12.6303 16.9114C12.6303 17.4251 12.2164 17.839 11.7027 17.839ZM22.4059 17.839C21.8921 17.839 21.4783 17.4251 21.4783 16.9114C21.4783 16.3976 21.8921 15.9838 22.4059 15.9838C22.9197 15.9838 23.3335 16.3976 23.3335 16.9114C23.3335 17.4251 22.9197 17.839 22.4059 17.839Z" fill="white"/>
</svg>
