<svg width="14" height="14" viewBox="0 0 14 14" fill="none" xmlns="http://www.w3.org/2000/svg">
<path d="M7 0C3.14032 0 0 3.14032 0 7C0 10.8597 3.14032 14 7 14C10.8597 14 14 10.8597 14 7C14 3.14032 10.8597 0 7 0ZM7 1.07692C10.277 1.07692 12.9231 3.72296 12.9231 7C12.9231 10.277 10.277 12.9231 7 12.9231C3.72296 12.9231 1.07692 10.277 1.07692 7C1.07692 3.72296 3.72296 1.07692 7 1.07692ZM4.96394 4.1899L4.1899 4.96394L6.22596 7L4.1899 9.03606L4.96394 9.8101L7 7.77404L9.03606 9.8101L9.8101 9.03606L7.77404 7L9.8101 4.96394L9.03606 4.1899L7 6.22596L4.96394 4.1899Z" fill="#741C28"/>
</svg>
